<svg id="Layer_1" data-name="Layer 1" xmlns="http://www.w3.org/2000/svg" viewBox="0 0 1987.2 1987.2"><defs><style>.cls-1{fill:#003580;}</style></defs><title>air-conditioner</title><path class="cls-1" d="M1359.62,42.92c-548.75,0-993.6,444.85-993.6,993.6s444.85,993.6,993.6,993.6,993.6-444.85,993.6-993.6S1908.37,42.92,1359.62,42.92Zm692.2,592h0a386.67,386.67,0,0,1-305.75,305.75l-247.61,48.14c-34.13,6.64-56.23-34.92-31.64-59.5L1862.1,534C1940.48,455.66,2073,526.12,2051.82,634.92ZM958,344.32h0a386.65,386.65,0,0,1,305.75,305.75l48.15,247.61c6.63,34.13-34.92,56.22-59.5,31.64L857.13,534C778.75,455.66,849.21,323.16,958,344.32Zm-309,692.2C538.15,1036.52,494.28,893,586.18,831h0a386.67,386.67,0,0,1,432.4,0l209.13,141c28.83,19.44,15.07,64.45-19.7,64.45Zm18.41,401.6h0a386.65,386.65,0,0,1,305.75-305.75l247.62-48.15c34.12-6.64,56.22,34.92,31.64,59.5L857.13,1539C778.75,1617.38,646.25,1546.93,667.41,1438.12Zm692.21,309c0,110.85-143.52,154.72-205.49,62.82h0a386.64,386.64,0,0,1,0-432.4l141-209.14c19.44-28.82,64.45-15.06,64.45,19.71Zm0-862.22v-559c0-110.84,143.51-154.71,205.49-62.81h0a386.67,386.67,0,0,1,0,432.4l-141,209.13C1404.63,933.44,1359.62,919.68,1359.62,884.92Zm401.59,843.81h0A386.67,386.67,0,0,1,1455.46,1423l-48.15-247.61c-6.63-34.12,34.92-56.22,59.51-31.64L1862.1,1539C1940.48,1617.38,1870,1749.88,1761.21,1728.73ZM2133.05,1242h0a386.64,386.64,0,0,1-432.4,0l-209.13-141c-28.82-19.44-15.06-64.45,19.7-64.45h559C2181.08,1036.52,2225,1180,2133.05,1242Z" transform="translate(-366.02 -42.92)"/></svg>