<svg id="_Layer_" data-name="&lt;Layer&gt;" xmlns="http://www.w3.org/2000/svg" viewBox="0 0 1000 598.1"><defs><style>.cls-1{fill:#003580;}</style></defs><title>tea</title><path class="cls-1" d="M500,1408.75s12.29,35.24,60.39,66.78a65.66,65.66,0,0,0,36,10.7h798.24a65.64,65.64,0,0,0,36-10.7c48.1-31.54,60.39-66.78,60.39-66.78H500Z" transform="translate(-500 -888.14)"/><path class="cls-1" d="M1472.28,944.51c-24.19-27.74-60.11-39.14-103.86-33a202,202,0,0,0-34.42,8.1,46.81,46.81,0,0,0-44.24-31.5H1145.24v144.24a9.74,9.74,0,0,1-1.35,4.91l50.9,29.22v118.92H1075.87V1066.51l50.9-29.22a9.84,9.84,0,0,1-1.35-4.91V888.14H619.75A46.76,46.76,0,0,0,573,935.4c4.15,349.35,238.65,450.43,238.65,450.43h286.28s78.94-34,146-130.83a29.33,29.33,0,0,0,15.34.38c74.83-18.1,134.46-51,177.23-97.88,36.44-39.91,52.63-81.39,59.79-109.15C1505.79,1011.48,1496.82,972.67,1472.28,944.51Zm-840.15.88h84.78S704.8,1120.47,827,1306.55C827,1306.55,670.67,1262.51,632.13,945.39Zm806.57,88.1c-10.89,42.2-45.53,114.35-155.39,152.91,25.37-54,44.93-121,51.18-203.46a30,30,0,0,0,5.24-1.91c.6-.29,61.55-27.47,87.73,2.55C1439.12,997,1443.32,1015.61,1438.7,1033.49Z" transform="translate(-500 -888.14)"/></svg>