<svg id="Layer_2" data-name="Layer 2" xmlns="http://www.w3.org/2000/svg" viewBox="0 0 1620 1622.77"><defs><style>.cls-1{fill:#003580;}</style></defs><title>fork-spoon</title><path class="cls-1" d="M742.6,794.83c277.69,338.26,828.16,940.45,861.11,974.3,45.21,46.44,120.77,54.77,168.76,18.6s50.26-103.13,5-149.57c-33-33.84-624.74-604.9-962-898.27,102.21-92.39,136.36-208.26,11.33-336.68C688.42,261,376.29,125.43,248.12,222S224.29,610.77,362.71,753C487.74,881.37,623.13,869.49,742.6,794.83ZM390.83,730.65C281.13,618,193.45,408.47,232.11,283.87c7.41,133.24,101,314.7,206,422.59,70.5,72.41,141.12,106.49,209,112.95C562.47,837.82,474.28,816.36,390.83,730.65Z" transform="translate(-190 -187.46)"/><path class="cls-1" d="M914.85,996.17c-311,286.48-678.72,642.16-699.7,663.61-36,36.8-33,93.71,6.65,127.1s101,30.63,137-6.17c20.68-21.14,357.14-385,632.19-697.2C965.08,1054,939.62,1024.78,914.85,996.17Z" transform="translate(-190 -187.46)"/><path class="cls-1" d="M1805.44,429h0a14.67,14.67,0,0,0-19.64.89L1442.54,781l-32.83-27.65,334.38-358.94a12.27,12.27,0,0,0-1.18-18l-2.34-2a14.68,14.68,0,0,0-19.34.59l-355.3,341.46-32.83-27.66,335.53-357.92a12.24,12.24,0,0,0-1.15-18l-7-5.87a14.68,14.68,0,0,0-19.44.69L1289.7,652.25l-32.83-27.65,331.79-361.24a12.26,12.26,0,0,0-1.23-17.93l-2.35-2a14.67,14.67,0,0,0-19.41.66L1213.09,587.73l-32.83-27.64L1523.51,209a12.25,12.25,0,0,0-1-18.22,14.7,14.7,0,0,0-18.59-.08l-326,269.57c-57.73,47.72-83.79,120.31-68.46,190.62h0c18.89,86.58-10.93,176.11-79.11,237.76-9,8.14-18.11,18.4-27.32,26.76q37,33.49,75.09,68.44c9-10.34,17.82-22.56,26.53-32.64,59.51-68.94,152.64-105.16,247.32-96.1h0c76.9,7.35,152.22-23.75,197.82-81.69l257.52-327.26A12.25,12.25,0,0,0,1805.44,429Z" transform="translate(-190 -187.46)"/></svg>