<svg id="Layer_1" data-name="Layer 1" xmlns="http://www.w3.org/2000/svg" viewBox="0 0 1574.42 1574.42"><defs><style>.cls-1,.cls-5{fill:#3c70ba;}.cls-1,.cls-2,.cls-3{fill-rule:evenodd;}.cls-2,.cls-4{fill:#2e5989;}.cls-3{fill:#fff;}</style></defs><title>logo_</title><path class="cls-1" d="M25-761.25h0c433,0,787.21,354.24,787.21,787.21h0c0,433-354.24,787.21-787.21,787.21h0c-433,0-787.21-354.24-787.21-787.21h0C-762.25-407-408-761.25,25-761.25Z" transform="translate(762.25 761.25)"/><path class="cls-2" d="M796.43,182.42C723.35,541.1,404.39,813.17,25,813.17h0A784.56,784.56,0,0,1-85.68,805.3L-397.86,446.22V-47.71H541.32L796.43,182.42Z" transform="translate(762.25 761.25)"/><path class="cls-3" d="M427.4-55.54V446.22H-397.86V-55.54l-64.84,60C-487.35,29.09-542.75-19.26-512-47.92l526.54-488c171.86,159,354.9,329.18,526.76,488.17C572.26-16.77,519,31.21,492.24,4.45l-64.84-60Z" transform="translate(762.25 761.25)"/><path class="cls-4" d="M-211.09-80.88h97.2c53.39,0,82.07,28.28,82.07,68.52,0,33.07-19.92,54.58-43,61,19.91,5.58,53,25.1,53,68.92,0,55.77-41.83,80.47-90.43,80.47h-98.8Zm90,119.91c48.21,0,66.53-17.93,66.53-50.2C-54.53-38.65-73.65-61-112.69-61H-190V39Zm-68.92,139h78.48c36.66,0,67.33-18.32,67.33-59.35C-44.17,83.25-66.88,59-123,59H-190Z" transform="translate(762.25 761.25)"/><path class="cls-4" d="M42.68,123.09c8.36,37,33.06,59,78.87,59,51,0,70.52-25.5,70.52-55.78,0-31.47-13.95-51-75.3-66.13-59-14.74-84.45-33.86-84.45-74.09,0-36.65,26.69-70.91,86.45-70.91,61.35,0,87.24,37.44,90.83,71.3H187.29c-6.38-29.87-25.9-51.39-69.72-51.39-40.24,0-62.15,18.73-62.15,49.8,0,30.68,18.33,42.63,69.72,55.38,78.48,19.52,90,51,90,84.45,0,41-29.88,76.49-94.41,76.49-69.72,0-95.21-40.63-100.39-78.08Z" transform="translate(762.25 761.25)"/><path class="cls-5" d="M-274.15,337.62h22c12.09,0,18.59,6.41,18.59,15.52,0,7.49-4.51,12.37-9.75,13.81,4.52,1.27,12,5.69,12,15.62,0,12.63-9.48,18.23-20.49,18.23h-22.38Zm20.39,27.17c10.92,0,15.08-4.07,15.08-11.38,0-6.22-4.34-11.28-13.18-11.28h-17.51v22.66Zm-15.61,31.5h17.78c8.3,0,15.25-4.16,15.25-13.45,0-8-5.14-13.54-17.87-13.54h-15.16Z" transform="translate(762.25 761.25)"/><path class="cls-5" d="M-181.83,378.14c0,12.55-6.95,23.74-20.4,23.74-12.18,0-19.76-10-19.76-23.65,0-12.9,7.13-23.64,20.21-23.64C-189.77,354.59-181.83,364-181.83,378.14Zm-35.38.09c0,10.74,5.78,19.41,15.34,19.41,9.75,0,15.26-8,15.26-19.41,0-10.65-5.42-19.4-15.44-19.4C-212.33,358.83-217.21,367.4-217.21,378.23Z" transform="translate(762.25 761.25)"/><path class="cls-5" d="M-133.55,378.14c0,12.55-6.95,23.74-20.39,23.74-12.19,0-19.77-10-19.77-23.65,0-12.9,7.13-23.64,20.22-23.64C-141.49,354.59-133.55,364-133.55,378.14Zm-35.38.09c0,10.74,5.78,19.41,15.35,19.41,9.75,0,15.25-8,15.25-19.41,0-10.65-5.41-19.4-15.43-19.4C-164,358.83-168.93,367.4-168.93,378.23Z" transform="translate(762.25 761.25)"/><path class="cls-5" d="M-117.85,379c4.16-4.43,16.79-17.24,22.84-23.29h5.78l-17.87,18L-87,400.8h-5.59l-17.78-24.28-7.5,7.22V400.8h-4.51V334.28h4.51Z" transform="translate(762.25 761.25)"/><path class="cls-5" d="M-79.4,334.28h4.51V343H-79.4Zm0,21.39h4.51V400.8H-79.4Z" transform="translate(762.25 761.25)"/><path class="cls-5" d="M-60.09,367c0-4,0-7.76-.09-11.37h4.42c.18,1.44.27,7.31.18,8.57,2-4.6,5.69-9.65,15-9.65,8,0,15.16,4.51,15.16,17V400.8h-4.51V372.28c0-8-3.34-13.27-11.19-13.27-10.75,0-14.45,8.93-14.45,18.77v23h-4.51Z" transform="translate(762.25 761.25)"/><path class="cls-5" d="M23.84,397.73c0,14.44-6.4,22-19.49,22-11.73,0-16.61-6.59-17.69-13.45h4.6c1.63,6.23,6.77,9.21,13.27,9.21,11.73,0,15-7.58,15-19v-4.7c-2.43,5.87-6.86,9-15.07,9-10.56,0-18.68-8.58-18.68-22.57,0-15.16,8.66-23.64,19.31-23.64,9.21,0,13.18,4.33,14.44,7.94.09-2.62.18-5.78.27-6.86H24c0,1.62-.19,8.75-.19,13.09Zm-33.3-19.68c0,10.74,5.69,18.51,14.35,18.51,11.28,0,14.71-7.5,14.71-19.23,0-11.91-3.61-18.5-14.44-18.5C-5.22,358.83-9.46,367.76-9.46,378.05Z" transform="translate(762.25 761.25)"/><path class="cls-5" d="M62.11,388.34c1.53,5.87,5.68,9.39,12.81,9.39,8,0,11.28-3.7,11.28-8.76S84,381.3,73.93,378.87c-11.64-2.8-14.53-6.32-14.53-12.28,0-6.23,4.69-12,14.89-12s15.07,6.22,15.79,12.63H85.57c-.81-3.79-3.79-8.48-11.46-8.48-7.85,0-10.11,3.88-10.11,7.49,0,4.15,2.17,6.23,11.1,8.39,12.73,3.07,15.89,7.22,15.89,14,0,8.22-6.68,13.27-16.16,13.27-10.29,0-16.06-5.41-17.33-13.54Z" transform="translate(762.25 761.25)"/><path class="cls-5" d="M103.17,378.78c.09,11.64,6,18.86,14.62,18.86,8.48,0,11.37-4.78,13-8.48h4.6c-1.9,5.95-6.68,12.72-17.78,12.72-13.72,0-19-11.82-19-23.29,0-12.9,6.4-24,19.58-24,13.9,0,18.32,12,18.32,20.49,0,1.26,0,2.52-.09,3.7Zm28.61-4c-.09-8.93-5-16-13.81-16-9.3,0-13.54,6.5-14.53,16Z" transform="translate(762.25 761.25)"/><path class="cls-5" d="M147.48,367.94c0-7.58-.09-10.83-.09-12.27h4.42c.09,1.44.18,4.33.18,10.11a17.1,17.1,0,0,1,15.71-11.19v4.87c-9.39.63-15.71,7.13-15.71,17.87V400.8h-4.51Z" transform="translate(762.25 761.25)"/><path class="cls-5" d="M178.52,355.67c7.31,20.67,12.37,34.75,14.08,40.52h.09c1-3.33,6.05-16.78,14.81-40.52h4.78L195.22,400.8h-5.41l-16.07-45.13Z" transform="translate(762.25 761.25)"/><path class="cls-5" d="M221.39,334.28h4.52V343h-4.52Zm0,21.39h4.52V400.8h-4.52Z" transform="translate(762.25 761.25)"/><path class="cls-5" d="M273.92,387.53c-2.17,7.94-7.4,14.35-17.51,14.35-11.28,0-19.32-8.39-19.32-23.47,0-12.36,6.59-23.82,19.86-23.82,11.46,0,16.16,8.12,17,14.44h-4.6c-1.36-5.24-4.79-10.2-12.46-10.2-9.57,0-15,8.12-15,19.4,0,10.74,5.05,19.41,14.53,19.41,6.59,0,10.56-3.34,12.91-10.11Z" transform="translate(762.25 761.25)"/><path class="cls-5" d="M285.83,378.78c.09,11.64,6,18.86,14.62,18.86,8.48,0,11.37-4.78,13-8.48h4.6c-1.9,5.95-6.68,12.72-17.78,12.72-13.72,0-19-11.82-19-23.29,0-12.9,6.4-24,19.58-24,13.9,0,18.32,12,18.32,20.49,0,1.26,0,2.52-.09,3.7Zm28.61-4c-.09-8.93-5-16-13.81-16-9.3,0-13.54,6.5-14.53,16Z" transform="translate(762.25 761.25)"/></svg>