<svg id="Layer_2" data-name="Layer 2" xmlns="http://www.w3.org/2000/svg" viewBox="0 0 1124.85 1112.24"><defs><style>.cls-1{fill:#003580;}</style></defs><title>mug</title><path class="cls-1" d="M1155.86,477.63C1135.37,288,995.73,156,842,178.22V125.34c16.39-2.72,29.18-21.2,29.18-43.45,0-24.1-15-43.83-33.34-43.83h-771c-18.34,0-33.34,19.73-33.34,43.83,0,22.25,12.79,40.73,29.17,43.45V996.89c0,84.38,52.51,153.42,116.69,153.42H725.32c64.18,0,116.68-69,116.68-153.42V894.56l66.06-12.33C1065.62,852.81,1176.78,671.31,1155.86,477.63ZM667.57,738.27a87.22,87.22,0,0,1-87.22,87.22h-494V244.23h494a87.22,87.22,0,0,1,87.22,87.22Zm233.18,76.25-58.75,11V247.06c126.21-21.87,242,85.54,258.78,240.85C1117.66,644.25,1027.93,790.77,900.75,814.52Z" transform="translate(-33.54 -38.06)"/></svg>